<svg width="24" height="24" viewBox="0 0 24 24" fill="none" xmlns="http://www.w3.org/2000/svg">
<path fill-rule="evenodd" clip-rule="evenodd" d="M2.43784 10.9007C8.07383 8.64981 11.8258 7.15417 13.7098 6.42856C19.0721 4.37021 20.1992 4.01481 20.9239 4C21.0849 4 21.4392 4.02962 21.6807 4.20732C21.8739 4.3554 21.9222 4.54791 21.9545 4.69599C21.9867 4.84407 22.0189 5.15505 21.9867 5.39198C21.6968 8.20556 20.4408 15.0322 19.7967 18.1715C19.5229 19.5043 18.9915 19.9485 18.4762 19.993C17.349 20.0818 16.4956 19.3118 15.4167 18.6602C13.7098 17.6384 12.7597 17.0017 11.1012 15.9947C9.18492 14.8397 10.4248 14.2029 11.5198 13.1663C11.8097 12.8998 16.7532 8.75347 16.8499 8.38326C16.866 8.33883 16.866 8.16113 16.7532 8.07228C16.6405 7.98343 16.4795 8.01305 16.3507 8.04267C16.1735 8.07228 13.4683 9.73081 8.20265 13.0034C7.42972 13.4921 6.73729 13.7291 6.10928 13.7142C5.41686 13.6994 4.09643 13.3588 3.09806 13.0627C1.89035 12.7073 0.924178 12.5148 1.00469 11.8928C1.053 11.567 1.53608 11.2413 2.43784 10.9007Z" fill="white"/>
</svg>
