<svg width="24" height="24" viewBox="0 0 24 24" fill="none" xmlns="http://www.w3.org/2000/svg">
<path d="M17.7587 13.7907C17.712 13.7683 15.9623 12.9067 15.6514 12.7948C15.5245 12.7492 15.3885 12.7047 15.2439 12.7047C15.0076 12.7047 14.8092 12.8225 14.6546 13.0537C14.4798 13.3135 13.9507 13.932 13.7872 14.1167C13.7659 14.1411 13.7367 14.1703 13.7193 14.1703C13.7036 14.1703 13.4328 14.0588 13.3508 14.0232C11.4739 13.2079 10.0493 11.2473 9.85393 10.9166C9.82604 10.8691 9.82487 10.8475 9.82463 10.8475C9.83149 10.8224 9.89461 10.7591 9.92718 10.7264C10.0225 10.6321 10.1257 10.5079 10.2256 10.3876C10.2729 10.3307 10.3203 10.2736 10.3668 10.2199C10.5117 10.0512 10.5763 9.92033 10.6511 9.76869L10.6903 9.68991C10.8729 9.32703 10.7169 9.0208 10.6665 8.92191C10.6251 8.83916 9.88635 7.05615 9.8078 6.86882C9.61892 6.4168 9.36933 6.20633 9.0225 6.20633C8.99032 6.20633 9.0225 6.20633 8.88754 6.21202C8.7232 6.21895 7.82827 6.33677 7.43258 6.5862C7.01297 6.85074 6.3031 7.69402 6.3031 9.17703C6.3031 10.5118 7.15011 11.772 7.51378 12.2513C7.52281 12.2634 7.53941 12.2879 7.56349 12.3231C8.95619 14.3571 10.6924 15.8644 12.4524 16.5675C14.1468 17.2443 14.9492 17.3225 15.4053 17.3225H15.4054C15.5971 17.3225 15.7505 17.3075 15.8859 17.2942L15.9717 17.286C16.5571 17.2341 17.8434 16.5676 18.136 15.7544C18.3665 15.114 18.4273 14.4143 18.274 14.1603C18.1689 13.9876 17.9879 13.9007 17.7587 13.7907Z" fill="white"/>
<path d="M12.213 0C5.71307 0 0.424969 5.24836 0.424969 11.6995C0.424969 13.786 0.983358 15.8284 2.04115 17.6159L0.0165014 23.5883C-0.0212129 23.6996 0.00683904 23.8227 0.0892027 23.9066C0.148657 23.9673 0.229307 24 0.31167 24C0.343229 24 0.375021 23.9952 0.406034 23.9854L6.63357 22.0064C8.33772 22.917 10.2638 23.3976 12.2131 23.3976C18.7124 23.3977 24 18.1498 24 11.6995C24 5.24836 18.7124 0 12.213 0ZM12.213 20.9606C10.3788 20.9606 8.60227 20.4309 7.07515 19.4289C7.0238 19.3951 6.96419 19.3778 6.90419 19.3778C6.87248 19.3778 6.84068 19.3826 6.80975 19.3925L3.69014 20.3841L4.6972 17.413C4.72977 17.3169 4.71349 17.2108 4.65349 17.1288C3.49058 15.5398 2.87585 13.6625 2.87585 11.6995C2.87585 6.59221 7.06448 2.43709 12.2129 2.43709C17.3608 2.43709 21.5489 6.59221 21.5489 11.6995C21.549 16.8061 17.3609 20.9606 12.213 20.9606Z" fill="white"/>
</svg>
