<svg width="278" height="42" viewBox="0 0 278 42" fill="none" xmlns="http://www.w3.org/2000/svg">
<path d="M131.379 0.82782V39.3529H118.406V0.82782L131.379 0.82782Z" fill="#253200"/>
<path fill-rule="evenodd" clip-rule="evenodd" d="M240.953 39.3166V0.82782H259.483C263.075 0.82782 266.173 1.41432 268.775 2.58731C271.414 3.7603 273.449 5.44647 274.878 7.64583C276.308 9.80853 277.023 12.3744 277.023 15.3436C277.023 18.3127 276.308 20.8786 274.878 23.0413C273.633 24.8936 271.928 26.3702 269.765 27.4712L277.847 39.3166H263.992L257.464 29.6394H253.929V39.3166H240.953ZM258.658 19.8523H253.929V10.8349H258.658C260.454 10.8349 261.774 11.2381 262.617 12.0445C263.497 12.851 263.937 13.9507 263.937 15.3436C263.937 16.7365 263.497 17.8362 262.617 18.6426C261.774 19.449 260.454 19.8523 258.658 19.8523Z" fill="#253200"/>
<path d="M97.1599 41.112C93.9341 41.112 90.8184 40.7454 87.8126 40.0123C84.8068 39.2792 82.3325 38.3261 80.3898 37.1532L84.5685 27.6959C86.4013 28.7589 88.4357 29.6204 90.6718 30.2802C92.9444 30.9033 95.1438 31.2149 97.2698 31.2149C98.5161 31.2149 99.4875 31.1416 100.184 30.995C100.917 30.8117 101.449 30.5734 101.779 30.2802C102.108 29.9503 102.273 29.5654 102.273 29.1255C102.273 28.429 101.888 27.8792 101.119 27.476C100.349 27.0728 99.3226 26.7429 98.0396 26.4863C96.7933 26.193 95.4187 25.8998 93.9158 25.6065C92.4129 25.2766 90.8917 24.8551 89.3521 24.3419C87.8492 23.8287 86.4563 23.1506 85.1734 22.3075C83.9271 21.4644 82.919 20.3647 82.1492 19.0085C81.3795 17.6155 80.9946 15.8927 80.9946 13.84C80.9946 11.4573 81.6544 9.29463 82.974 7.35186C84.3303 5.37244 86.328 3.79623 88.9672 2.62324C91.6431 1.45025 94.9605 0.863758 98.9193 0.863758C101.522 0.863758 104.088 1.13868 106.617 1.68852C109.146 2.23835 111.419 3.08144 113.435 4.21778L109.531 13.62C107.625 12.667 105.774 11.9522 103.978 11.4757C102.218 10.9991 100.496 10.7609 98.8094 10.7609C97.5631 10.7609 96.5734 10.8708 95.8402 11.0908C95.1071 11.3107 94.5756 11.604 94.2457 11.9705C93.9525 12.3371 93.8058 12.7403 93.8058 13.1802C93.8058 13.84 94.1907 14.3715 94.9605 14.7747C95.7303 15.1413 96.7383 15.4528 97.9846 15.7094C99.2676 15.966 100.661 16.2409 102.163 16.5342C103.703 16.8274 105.224 17.2306 106.727 17.7438C108.23 18.257 109.605 18.9351 110.851 19.7782C112.134 20.6213 113.16 21.721 113.93 23.0773C114.7 24.4335 115.085 26.1197 115.085 28.1358C115.085 30.4818 114.406 32.6445 113.05 34.6239C111.731 36.5667 109.751 38.1429 107.112 39.3525C104.473 40.5255 101.155 41.112 97.1599 41.112Z" fill="#253200"/>
<path fill-rule="evenodd" clip-rule="evenodd" d="M0.386841 39.3529L77.0777 39.3529V29.542L57.8443 29.542C59.3425 26.8285 60.0916 23.6655 60.0916 20.0532C60.0916 16.4788 59.3445 13.3526 57.8504 10.6747L77.0777 10.6747V0.863758H0.386841V39.3529ZM38.7693 10.6747L13.3603 10.6747V29.542L38.7693 29.542C38.9153 29.5274 39.0595 29.5104 39.202 29.4908C43.5315 29.2295 46.962 25.6356 46.962 21.2404V18.9763C46.962 14.5811 43.5315 10.9872 39.202 10.7259C39.0595 10.7063 38.9153 10.6893 38.7693 10.6747Z" fill="#253200"/>
<path d="M237.611 10.6747V0.863758L202.672 0.863769V18.3385L188.046 0.863758H177.38L177.38 39.3166H190.026V21.815L204.652 39.3166H205.123V39.3529H237.611V29.542L215.319 29.542V10.6747L237.611 10.6747Z" fill="#253200"/>
<path d="M73.7355 24.7982V15.4544H64.3917V24.7982H73.7355Z" fill="#253200"/>
<path d="M234.269 15.4544V24.7982H224.925V15.4544H234.269Z" fill="#253200"/>
<path d="M156.184 41.112C153.069 41.112 150.191 40.6355 147.552 39.6824C144.949 38.6927 142.677 37.2998 140.734 35.5036C138.828 33.7075 137.343 31.5814 136.28 29.1255C135.217 26.6695 134.686 23.957 134.686 20.9879C134.686 18.0187 135.217 15.3062 136.28 12.8503C137.343 10.3943 138.846 8.26826 140.789 6.47212C142.732 4.67598 145.023 3.30138 147.662 2.34832C150.338 1.35861 153.27 0.863758 156.459 0.863758C160.272 0.863758 163.662 1.50524 166.631 2.78819C169.637 4.07115 172.111 5.90395 174.054 8.28659L165.752 15.5995C164.542 14.2065 163.222 13.1618 161.793 12.4654C160.4 11.7322 158.842 11.3657 157.119 11.3657C155.69 11.3657 154.388 11.5856 153.215 12.0255C152.079 12.4654 151.108 13.1068 150.301 13.9499C149.495 14.793 148.872 15.8011 148.432 16.9741C147.992 18.147 147.772 19.485 147.772 20.9879C147.772 22.4175 147.992 23.7371 148.432 24.9467C148.872 26.1197 149.495 27.1278 150.301 27.9708C151.108 28.8139 152.061 29.4737 153.16 29.9503C154.297 30.3901 155.561 30.6101 156.954 30.6101C158.42 30.6101 159.85 30.3718 161.243 29.8953C161.389 29.8416 161.535 29.7842 161.683 29.7229V19.9432H172.955V36.2184C170.609 37.7946 167.933 39.0043 164.927 39.8474C161.921 40.6905 159.007 41.112 156.184 41.112Z" fill="#253200"/>
</svg>
