<svg width="269" height="47" viewBox="0 0 269 47" fill="none" xmlns="http://www.w3.org/2000/svg">
<rect width="268.43" height="46.7588" fill="#BDFF00"/>
<path d="M127.341 6V39.3339H116.116V6L127.341 6Z" fill="#253200"/>
<path fill-rule="evenodd" clip-rule="evenodd" d="M222.15 39.3024V6H238.183C241.291 6 243.971 6.50747 246.223 7.5224C248.507 8.53733 250.267 9.99629 251.504 11.8993C252.741 13.7706 253.359 15.9907 253.359 18.5598C253.359 21.1288 252.741 23.349 251.504 25.2202C250.426 26.8229 248.951 28.1005 247.079 29.0532L254.073 39.3024H242.084L236.436 30.9292H233.378V39.3024H222.15ZM237.469 22.4609H233.378V14.6586H237.469C239.023 14.6586 240.165 15.0075 240.895 15.7053C241.656 16.403 242.036 17.3545 242.036 18.5598C242.036 19.765 241.656 20.7165 240.895 21.4143C240.165 22.112 239.023 22.4609 237.469 22.4609Z" fill="#253200"/>
<path d="M97.7328 40.8559C94.9418 40.8559 92.2459 40.5387 89.6451 39.9044C87.0444 39.2701 84.9035 38.4454 83.2225 37.4305L86.8382 29.2476C88.424 30.1674 90.1843 30.9127 92.119 31.4836C94.0854 32.0228 95.9884 32.2924 97.828 32.2924C98.9064 32.2924 99.7468 32.229 100.349 32.1021C100.984 31.9435 101.444 31.7374 101.729 31.4836C102.015 31.1982 102.157 30.8652 102.157 30.4846C102.157 29.882 101.824 29.4062 101.158 29.0573C100.492 28.7084 99.6041 28.423 98.494 28.201C97.4157 27.9472 96.2263 27.6935 94.9259 27.4398C93.6256 27.1543 92.3093 26.7896 90.9772 26.3456C89.6768 25.9015 88.4716 25.3148 87.3615 24.5853C86.2832 23.8558 85.411 22.9043 84.7449 21.7308C84.0789 20.5256 83.7458 19.0349 83.7458 17.2588C83.7458 15.1972 84.3167 13.3259 85.4585 11.6449C86.632 9.93223 88.3606 8.56842 90.6442 7.55349C92.9595 6.53856 95.8299 6.0311 99.2552 6.0311C101.507 6.0311 103.727 6.26897 105.916 6.74472C108.104 7.22047 110.071 7.94995 111.815 8.93316L108.437 17.0685C106.788 16.2438 105.186 15.6254 103.632 15.213C102.11 14.8007 100.619 14.5946 99.1601 14.5946C98.0817 14.5946 97.2254 14.6897 96.591 14.88C95.9567 15.0703 95.4968 15.324 95.2114 15.6412C94.9576 15.9584 94.8308 16.3073 94.8308 16.6879C94.8308 17.2588 95.1638 17.7187 95.8298 18.0675C96.4959 18.3847 97.3681 18.6543 98.4465 18.8763C99.5565 19.0983 100.762 19.3362 102.062 19.5899C103.394 19.8437 104.71 20.1925 106.011 20.6366C107.311 21.0806 108.501 21.6674 109.579 22.3968C110.689 23.1263 111.577 24.0778 112.243 25.2513C112.909 26.4248 113.242 27.8838 113.242 29.6282C113.242 31.6581 112.655 33.5294 111.482 35.2421C110.34 36.923 108.627 38.2868 106.344 39.3335C104.06 40.3484 101.19 40.8559 97.7328 40.8559Z" fill="#253200"/>
<path fill-rule="evenodd" clip-rule="evenodd" d="M14 39.3339L80.3568 39.3339V30.8449L63.7151 30.8449C65.0114 28.4971 65.6595 25.7603 65.6595 22.6347C65.6595 19.542 65.0131 16.8371 63.7204 14.52L80.3568 14.52V6.0311H14V39.3339ZM47.2104 14.52H25.2253V30.8449L47.2104 30.8449C47.3367 30.8323 47.4615 30.8176 47.5848 30.8007C51.3309 30.5746 54.2991 27.4649 54.2991 23.662V21.703C54.2991 17.9 51.3309 14.7904 47.5848 14.5643C47.4615 14.5474 47.3367 14.5326 47.2104 14.52Z" fill="#253200"/>
<path d="M219.258 14.52V6.0311L189.027 6.0311V21.1511L176.372 6.0311H167.143L167.143 39.3024H178.085V24.1592L190.74 39.3024H191.148V39.3339H219.258V30.8449L199.97 30.8449V14.52L219.258 14.52Z" fill="#253200"/>
<path d="M77.4649 26.7404V18.6557H69.3802V26.7404H77.4649Z" fill="#253200"/>
<path d="M216.366 18.6557V26.7404H208.282V18.6557H216.366Z" fill="#253200"/>
<path d="M148.804 40.8559C146.108 40.8559 143.618 40.4436 141.335 39.6189C139.083 38.7626 137.116 37.5574 135.435 36.0033C133.786 34.4491 132.502 32.6096 131.582 30.4846C130.662 28.3596 130.202 26.0125 130.202 23.4435C130.202 20.8744 130.662 18.5274 131.582 16.4024C132.502 14.2774 133.802 12.4378 135.483 10.8837C137.164 9.32962 139.146 8.14025 141.43 7.31562C143.745 6.45927 146.282 6.0311 149.042 6.0311C152.34 6.0311 155.274 6.58614 157.843 7.69621C160.444 8.80629 162.585 10.3921 164.266 12.4537L157.082 18.7812C156.035 17.5759 154.893 16.672 153.656 16.0694C152.451 15.4351 151.103 15.1179 149.613 15.1179C148.376 15.1179 147.25 15.3082 146.235 15.6888C145.252 16.0694 144.411 16.6244 143.713 17.3539C143.016 18.0834 142.476 18.9556 142.096 19.9705C141.715 20.9855 141.525 22.1431 141.525 23.4435C141.525 24.6804 141.715 25.8222 142.096 26.8689C142.476 27.8838 143.016 28.756 143.713 29.4855C144.411 30.215 145.236 30.7859 146.187 31.1982C147.17 31.5788 148.265 31.7691 149.47 31.7691C150.739 31.7691 151.975 31.5629 153.181 31.1506C153.307 31.1042 153.434 31.0545 153.561 31.0015V22.5396H163.314V36.6217C161.284 37.9855 158.969 39.0322 156.368 39.7617C153.767 40.4911 151.246 40.8559 148.804 40.8559Z" fill="#253200"/>
</svg>
